<svg width="35" height="35" viewBox="0 0 35 35" fill="none" stroke="" xmlns="http://www.w3.org/2000/svg">
<path d="M29.4 10.5H5.6C3.95695 10.5 2.625 11.7872 2.625 13.375V27.75C2.625 29.3378 3.95695 30.625 5.6 30.625H29.4C31.043 30.625 32.375 29.3378 32.375 27.75V13.375C32.375 11.7872 31.043 10.5 29.4 10.5Z"  stroke-linecap="round" stroke-linejoin="round"/>
<path d="M23.625 30.625V7.19444C23.625 6.44668 23.3023 5.72954 22.728 5.2008C22.1537 4.67205 21.3747 4.375 20.5625 4.375H14.4375C13.6253 4.375 12.8463 4.67205 12.272 5.2008C11.6977 5.72954 11.375 6.44668 11.375 7.19444V30.625"  stroke-linecap="round" stroke-linejoin="round"/>
</svg>
