<svg width="35" height="35" viewBox="0 0 35 35" fill="none" stroke="#8B8B8B" xmlns="http://www.w3.org/2000/svg" >
<path d="M17.4993 32.0834C25.5535 32.0834 32.0827 25.5542 32.0827 17.5C32.0827 9.44587 25.5535 2.91669 17.4993 2.91669C9.4452 2.91669 2.91602 9.44587 2.91602 17.5C2.91602 25.5542 9.4452 32.0834 17.4993 32.0834Z"  stroke-linecap="round" stroke-linejoin="round"/>
<path d="M19.8883 12.5816C21.4519 12.0604 22.9393 13.5479 22.4182 15.1114L20.9076 19.643C20.7086 20.2402 20.2399 20.7088 19.6427 20.9079L15.1111 22.4184C13.5476 22.9396 12.0601 21.4521 12.5813 19.8886L14.0918 15.357C14.2909 14.7598 14.7595 14.2912 15.3568 14.0921L19.8883 12.5816Z"  stroke-linecap="round" stroke-linejoin="round"/>
</svg>
