<svg width="35" height="35" stroke="" viewBox="0 0 35 35" fill="none" xmlns="http://www.w3.org/2000/svg">
<path d="M17.4993 32.0834C25.5535 32.0834 32.0827 25.5542 32.0827 17.5001C32.0827 9.44593 25.5535 2.91675 17.4993 2.91675C9.4452 2.91675 2.91602 9.44593 2.91602 17.5001C2.91602 25.5542 9.4452 32.0834 17.4993 32.0834Z"  stroke-linecap="round" stroke-linejoin="round"/>
<path d="M17.5 25.375C21.8492 25.375 25.375 21.8492 25.375 17.5C25.375 13.1508 21.8492 9.625 17.5 9.625C13.1508 9.625 9.625 13.1508 9.625 17.5C9.625 21.8492 13.1508 25.375 17.5 25.375Z"  stroke-linecap="round" stroke-linejoin="round"/>
<path d="M7.875 7.875L11.375 11.375"  stroke-linecap="round" stroke-linejoin="round"/>
<path d="M23.625 23.625L27.125 27.125"  stroke-linecap="round" stroke-linejoin="round"/>
<path d="M27.125 7.875L23.625 11.375"  stroke-linecap="round" stroke-linejoin="round"/>
<path d="M11.375 23.625L7.875 27.125"  stroke-linecap="round" stroke-linejoin="round"/>
</svg>
